<?xml version="1.0" encoding="UTF-8"?>
<!DOCTYPE svg PUBLIC "-//W3C//DTD SVG 1.1//EN" "http://www.w3.org/Graphics/SVG/1.1/DTD/svg11.dtd">
<!-- Creator: CorelDRAW -->
<svg xmlns="http://www.w3.org/2000/svg" xml:space="preserve" width="413px" height="439px" version="1.1" style="shape-rendering:geometricPrecision; text-rendering:geometricPrecision; image-rendering:optimizeQuality; fill-rule:evenodd; clip-rule:evenodd"
viewBox="0 0 327.62 347.78"
 xmlns:xlink="http://www.w3.org/1999/xlink"
 xmlns:xodm="http://www.corel.com/coreldraw/odm/2003">
 <defs>
  <style type="text/css">
   <![CDATA[
    .str0 {stroke:white;stroke-width:25.46;stroke-linejoin:round;stroke-miterlimit:2.61313}
    .str1 {stroke:white;stroke-width:25.46;stroke-linejoin:round;stroke-miterlimit:2.61313}
    .fil0 {fill:none}
    .fil1 {fill:#425BB5}
   ]]>
  </style>
 </defs>
 <g id="Layer_x0020_1">
  <metadata id="CorelCorpID_0Corel-Layer"/>
  <g id="_105553116617248">
   <g>
    <path class="fil0 str0" d="M314.89 62.4c0,-21.85 -17.71,-39.56 -39.55,-39.56 -21.84,0 -39.55,17.71 -39.55,39.56 0,21.84 17.71,39.55 39.55,39.55 21.84,0 39.55,-17.71 39.55,-39.55z"/>
    <path id="_1" class="fil1" d="M314.89 62.4c0,-21.85 -17.71,-39.56 -39.55,-39.56 -21.84,0 -39.55,17.71 -39.55,39.56 0,21.84 17.71,39.55 39.55,39.55 21.84,0 39.55,-17.71 39.55,-39.55z"/>
   </g>
   <g>
    <path class="fil0 str1" d="M136.39 95.61l0 0zm88.8 -68.44l0 0zm-113.7 107.6c5.51,-13.52 13.81,-26.56 24.89,-39.17l0.01 -0.01c10.86,-12.41 22.34,-21.84 34.45,-28.28 11.86,-6.31 24.38,-9.77 37.56,-10.39 3.14,0.02 5.78,-2.41 5.99,-5.59 0.57,-8.07 9.96,-22.84 10.79,-24.17l0.07 -0.12c0.46,-0.7 0.82,-1.49 1.08,-2.33 0.28,-0.91 0.43,-1.82 0.43,-2.71 0,-2.37 -0.92,-4.56 -2.43,-6.22 -1.51,-1.67 -3.61,-2.79 -5.97,-3.02 -0.23,-0.02 -0.46,-0.03 -0.7,-0.03 -18.29,0.36 -36,2.62 -53.11,6.77 -17.17,4.16 -33.7,10.21 -49.57,18.12l0 0.03c-17.8,8.91 -33.5,19.57 -47.1,31.95 -13.66,12.44 -25.23,26.63 -34.69,42.58 -6.78,11.34 -11.87,22.64 -15.28,33.88 -3.46,11.42 -5.18,22.71 -5.18,33.86 0,20.29 4.99,37.88 14.97,52.75 9.93,14.79 24.68,26.72 44.28,35.77 14.15,6.52 30.3,11.4 48.48,14.64 15.67,2.8 32.85,4.38 51.55,4.75l-14.24 38.78c-0.21,0.56 -0.33,1.17 -0.36,1.8 -0.14,3.3 2.42,6.09 5.72,6.23 2.7,0.13 5.4,0.22 8.07,0.29 3.09,0.08 5.47,0.12 7.13,0.12 19.72,0 35.95,-3.76 48.68,-11.27 13.04,-7.69 22.26,-19.18 27.66,-34.44l0 -0.02c10.35,-29.45 19.39,-55.22 27.11,-77.32 7.19,-20.55 13.53,-38.78 19.07,-54.82 0.35,-0.75 0.54,-1.6 0.54,-2.48 0,-3.32 -2.68,-6 -6,-6l-102.29 0c-1.9,0 -3.63,0.77 -4.88,2.02 -1.24,1.25 -2.02,2.98 -2.02,4.88l0 10.08 0.02 0c0,3.23 2.57,5.89 5.82,5.97 4.15,0.12 8.15,0.91 11.86,2.25 2.49,0.89 4.86,2.04 7.08,3.41l-24.46 68.67c-11.23,-0.27 -21.43,-1.62 -30.59,-4.05 -10.04,-2.67 -18.85,-6.64 -26.41,-11.9 -0.08,-0.05 -0.16,-0.11 -0.23,-0.16 -8.7,-6.03 -15.2,-13.41 -19.5,-22.15 -4.35,-8.84 -6.52,-19.21 -6.52,-31.12 0,-14.46 2.75,-28.4 8.22,-41.83l0 0z"/>
    <path id="_1_0" class="fil1" d="M136.39 95.61l0 0zm88.8 -68.44l0 0zm-113.7 107.6c5.51,-13.52 13.81,-26.56 24.89,-39.17l0.01 -0.01c10.86,-12.41 22.34,-21.84 34.45,-28.28 11.86,-6.31 24.38,-9.77 37.56,-10.39 3.14,0.02 5.78,-2.41 5.99,-5.59 0.57,-8.07 9.96,-22.84 10.79,-24.17l0.07 -0.12c0.46,-0.7 0.82,-1.49 1.08,-2.33 0.28,-0.91 0.43,-1.82 0.43,-2.71 0,-2.37 -0.92,-4.56 -2.43,-6.22 -1.51,-1.67 -3.61,-2.79 -5.97,-3.02 -0.23,-0.02 -0.46,-0.03 -0.7,-0.03 -18.29,0.36 -36,2.62 -53.11,6.77 -17.17,4.16 -33.7,10.21 -49.57,18.12l0 0.03c-17.8,8.91 -33.5,19.57 -47.1,31.95 -13.66,12.44 -25.23,26.63 -34.69,42.58 -6.78,11.34 -11.87,22.64 -15.28,33.88 -3.46,11.42 -5.18,22.71 -5.18,33.86 0,20.29 4.99,37.88 14.97,52.75 9.93,14.79 24.68,26.72 44.28,35.77 14.15,6.52 30.3,11.4 48.48,14.64 15.67,2.8 32.85,4.38 51.55,4.75l-14.24 38.78c-0.21,0.56 -0.33,1.17 -0.36,1.8 -0.14,3.3 2.42,6.09 5.72,6.23 2.7,0.13 5.4,0.22 8.07,0.29 3.09,0.08 5.47,0.12 7.13,0.12 19.72,0 35.95,-3.76 48.68,-11.27 13.04,-7.69 22.26,-19.18 27.66,-34.44l0 -0.02c10.35,-29.45 19.39,-55.22 27.11,-77.32 7.19,-20.55 13.53,-38.78 19.07,-54.82 0.35,-0.75 0.54,-1.6 0.54,-2.48 0,-3.32 -2.68,-6 -6,-6l-102.29 0c-1.9,0 -3.63,0.77 -4.88,2.02 -1.24,1.25 -2.02,2.98 -2.02,4.88l0 10.08 0.02 0c0,3.23 2.57,5.89 5.82,5.97 4.15,0.12 8.15,0.91 11.86,2.25 2.49,0.89 4.86,2.04 7.08,3.41l-24.46 68.67c-11.23,-0.27 -21.43,-1.62 -30.59,-4.05 -10.04,-2.67 -18.85,-6.64 -26.41,-11.9 -0.08,-0.05 -0.16,-0.11 -0.23,-0.16 -8.7,-6.03 -15.2,-13.41 -19.5,-22.15 -4.35,-8.84 -6.52,-19.21 -6.52,-31.12 0,-14.46 2.75,-28.4 8.22,-41.83l0 0z"/>
   </g>
  </g>
 </g>
</svg>
